<svg xmlns="http://www.w3.org/2000/svg" width="96" height="96" viewBox="0 0 96 96" fill="none">
  <g clip-path="url(#clip0_62_24205)">
    <rect x="62" y="44" width="16" height="62" transform="rotate(90 62 44)" fill="#CED2DB" />
    <circle cx="72" cy="52" r="24" fill="#0052FF" />
    <rect x="8" y="36" width="6" height="32" fill="#73A2FF" />
    <rect x="21" y="36" width="6" height="32" fill="#73A2FF" />
    <rect x="34" y="36" width="6" height="32" fill="#73A2FF" />
    <rect x="8" y="44" width="6" height="16" fill="#0052FF" />
    <rect x="21" y="44" width="6" height="16" fill="#0052FF" />
    <rect x="34" y="44" width="6" height="16" fill="#0052FF" />
    <path d="M24 18L48 32V38H0V32L24 18Z" fill="#73A2FF" />
    <rect y="66" width="48" height="8" fill="#73A2FF" />
    <path
      d="M96 32.9991C91.0286 32.9991 87.0009 37.0286 87.0009 42C87.0009 37.0286 82.9714 32.9991 78 32.9991C82.9714 32.9991 87.0009 28.9696 87.0009 24C87.0009 28.9696 91.0286 32.9991 96 32.9991Z"
      fill="#FFD200" />
    <circle cx="72" cy="52" r="24" fill="#0052FF" />
    <path
      d="M96 32.9991C91.0286 32.9991 87.0009 37.0286 87.0009 42C87.0009 37.0286 82.9714 32.9991 78 32.9991C82.9714 32.9991 87.0009 28.9696 87.0009 24C87.0009 28.9696 91.0286 32.9991 96 32.9991Z"
      fill="#FFD200" />
    <path fill-rule="evenodd" clip-rule="evenodd"
      d="M47.9999 53L-1.74846e-07 53L0 51L47.999 51C47.999 51.1553 48 51.3106 48 51.4621C48 51.7433 48 52.1268 48 52.5379C48 52.6894 47.9999 52.8447 47.9999 53Z"
      fill="#0A0B0D" />
    <path fill-rule="evenodd" clip-rule="evenodd"
      d="M90 52C90 61.9411 81.9411 70 72 70C62.0589 70 54 61.9411 54 52C54 42.0589 62.0589 34 72 34C81.9411 34 90 42.0589 90 52ZM72 68C80.8366 68 88 60.8366 88 52C88 43.1634 80.8366 36 72 36C63.1634 36 56 43.1634 56 52C56 60.8366 63.1634 68 72 68Z"
      fill="#0A0B0D" />
    <path
      d="M48.0205 53.0001C48.0069 52.6684 48 52.335 48 52.0001C48 51.6651 48.0069 51.3317 48.0205 51.0001H74.0858L67.7929 44.7072L69.2071 43.293L77.9142 52.0001L69.2071 60.7072L67.7929 59.293L74.0858 53.0001H48.0205Z"
      fill="white" />
    <path
      d="M89.5829 35.6676C87.979 37.293 86.9892 39.526 86.9892 41.9905C86.9892 37.0191 82.9597 32.9896 77.9883 32.9896C80.126 32.9896 82.0896 32.2445 83.6335 31C85.8575 32.2365 87.8645 33.8162 89.5829 35.6676Z"
      fill="#0A0B0D" />
  </g>
  <defs>
    <clipPath id="clip0_62_24205">
      <rect width="96" height="96" fill="white" />
    </clipPath>
  </defs>
</svg>